/* XPM */
static char *2_view[] = {
/* columns rows colors chars-per-pixel */
"16 16 106 2",
"   c #5A527B",
".  c #42429C",
"X  c #5A5284",
"o  c #5A528C",
"O  c #52529C",
"+  c #5A5A9C",
"@  c #4242A5",
"#  c #635A84",
"$  c #635A8C",
"%  c #63638C",
"&  c #6B638C",
"*  c #63639C",
"=  c #6B639C",
"-  c #736B94",
";  c #7B739C",
":  c #7B7B9C",
">  c #6363A5",
",  c #6B6BA5",
"<  c #6B6BBD",
"1  c #6B7BBD",
"2  c #7373A5",
"3  c #7B7BA5",
"4  c #7B73B5",
"5  c #31B5FF",
"6  c #39B5FF",
"7  c #5A94E7",
"8  c #4AB5FF",
"9  c #4ABDFF",
"0  c #52ADEF",
"q  c #5AA5E7",
"w  c #6384C6",
"e  c #6B8CD6",
"r  c #63A5E7",
"t  c #73BDF7",
"y  c #52C6FF",
"u  c #63CEFF",
"i  c #6BCEFF",
"p  c #7BC6F7",
"a  c #73D6FF",
"s  c #7BD6FF",
"d  c #847BA5",
"f  c Null",
"g  c #8C8CAD",
"h  c #8484B5",
"j  c #8C8CB5",
"k  c #8C8CBD",
"l  c #8C9CB5",
"z  c #9494AD",
"x  c #9494B5",
"c  c #9C9CBD",
"v  c #A5A5BD",
"b  c #8C94CE",
"n  c #9494CE",
"m  c #9C9CC6",
"M  c #8CA5DE",
"N  c #8CBDDE",
"B  c #94BDCE",
"V  c #9CB5CE",
"C  c #A5A5C6",
"Z  c #A5A5CE",
"A  c #ADADC6",
"S  c #ADADCE",
"D  c #A5A5D6",
"F  c #A5ADDE",
"G  c #ADB5D6",
"H  c #B5B5CE",
"J  c #BDB5CE",
"K  c #BDBDCE",
"L  c #B5B5D6",
"P  c #B5B5DE",
"I  c #B5BDDE",
"U  c #BDBDD6",
"Y  c #BDBDE7",
"T  c #9CC6DE",
"R  c #84DEFF",
"E  c #8CDEFF",
"W  c #9CCEEF",
"Q  c #94E7FF",
"!  c #9CE7FF",
"~  c #9CEFFF",
"^  c #BDC6D6",
"/  c #BDC6DE",
"(  c #A5CEE7",
")  c #B5C6E7",
"_  c #BDC6E7",
"`  c #ADEFFF",
"'  c #B5F7FF",
"]  c #BDF7FF",
"[  c #C6C6CE",
"{  c #C6CECE",
"}  c #C6C6D6",
"|  c #C6CEDE",
" . c #CECED6",
".. c #CECEDE",
"X. c gray84",
"o. c #D6D6DE",
"O. c gray87",
"+. c #C6C6E7",
"@. c #C6CEE7",
"#. c #DEDEEF",
"$. c #C6FFFF",
"%. c #CEFFFF",
"&. c #E7E7E7",
"*. c #E7E7EF",
"=. c #EFEFEF",
"-. c gray97",
/* pixels */
"f f f f f f @.| @./ L m I f f f ",
"f f f { X.[ } A v V T N 2 G f f ",
"f f f  .l B ( ] %.$.` Q = C f f ",
"f f f } W E ! ` ' ` ~ E , x f f ",
"f f f ^ ( s E Q ! Q E s 1 g f f ",
"f f f / ) i a R R R s i w : f f ",
"f f f f S y u i i i u y 7 - f f ",
"f f f f L 0 9 y y y 9 8 e # f f ",
"f f f f P q 5 6 6 t M 4 o & f f ",
"f f f f Y r 5 p F < @   ; S f f ",
"f f f f +.b P D n . . * c f f f ",
"f f f f =.*.-.&.L > O h j / f f ",
"f f f / =.-.=.O.} k + h h j f f ",
"f f f _  .&.O.o.U c , k $ d f f ",
"f f f f Z z A H A c 3 X % C f f ",
"f f f f f #...K J J K } #.f f f "
};
