/* XPM */
static char *5_generator[] = {
/* columns rows colors chars-per-pixel */
"16 16 104 2",
"   c #007B00",
".  c #297B21",
"X  c #735A29",
"o  c #7B6B31",
"O  c gray32",
"+  c #7B6B42",
"@  c gray39",
"#  c gray42",
"$  c #636B73",
"%  c #63738C",
"&  c #089408",
"*  c #089C08",
"=  c #108C08",
"-  c #188C31",
";  c #189421",
":  c #10A508",
">  c #18A510",
",  c #18A518",
"<  c #219418",
"1  c #299C29",
"2  c #299439",
"3  c #398C21",
"4  c #29AD18",
"5  c #39A518",
"6  c #29B521",
"7  c #39A539",
"8  c #31B521",
"9  c #31BD21",
"0  c #299452",
"q  c #29A54A",
"w  c #429C39",
"e  c #5AA518",
"r  c #4A945A",
"t  c #42846B",
"y  c #42B542",
"u  c #4ABD52",
"i  c #5AA563",
"p  c #42C629",
"a  c #52CE39",
"s  c #5AD639",
"d  c #63D642",
"f  c #6BDE4A",
"g  c #63C663",
"h  c #63C673",
"j  c #73E74A",
"k  c #7BE75A",
"l  c #7BEF52",
"z  c #4AB58C",
"x  c #8C4200",
"c  c #945200",
"v  c #845229",
"b  c #8C5A29",
"n  c #944A21",
"m  c #945221",
"M  c #946321",
"N  c #A56308",
"B  c #A56B00",
"V  c #AD6B08",
"C  c #A57318",
"Z  c #AD7318",
"A  c #AD7321",
"S  c #B57B29",
"D  c #846352",
"F  c Null",
"G  c #9CAD31",
"H  c #B5A539",
"J  c #9C844A",
"K  c #9C8473",
"L  c #84B573",
"P  c #BDAD63",
"I  c #84D673",
"U  c #94F76B",
"Y  c #CE9408",
"T  c #C69410",
"R  c #CE9410",
"E  c #CE9C10",
"W  c #CE9C18",
"Q  c #C68C29",
"!  c #CE9429",
"~  c #D6A518",
"^  c #D6A529",
"/  c #DEA529",
"(  c #DEAD31",
")  c #C6A542",
"_  c #DEAD4A",
"`  c #DEB542",
"'  c #E7AD42",
"]  c #E7B542",
"[  c #EFBD42",
"{  c #EFBD4A",
"}  c #E7BD63",
"|  c #D6C663",
" . c #EFC652",
".. c #F7C652",
"X. c #E7C66B",
"o. c #EFC66B",
"O. c gray55",
"+. c #8CA5B5",
"@. c #A5A5A5",
"#. c #9CB5C6",
"$. c #A5E794",
"%. c #CECECE",
"&. c gray84",
"*. c gray87",
/* pixels */
"F F F d +.$ z 6 F F F F F F F F ",
"F F k f %.O.r u g F F F F F F F ",
"F d f f &.@.w 9 , q F F F F F F ",
"$.U l f &.@.. & : > h F F F F F ",
"7 8 j j I L < > > * 0 F F F F F ",
"F - f j s a p 9 , ; t F F F F F ",
"F 1 f 8 4 a 5 e y #.O % ) W F F ",
"F i =   2 a G ` | &.@ + ^ ^ F F ",
"F F F F F 3 H { o.*.# o ~ W W F ",
"F F F F F X. .{ o.*.# X T Y E P ",
"F F F F F n ' ..{ } J C R T B M ",
"F F F F F m Q { [ ] ( / ~ T x D ",
"F F F F F F _ ] N ! ( V T R F F ",
"F F F F F F A Z v S ^ b c N F F ",
"F F F F F F F F F K x F F F F F ",
"F F F F F F F F F F F F F F F F "
};
