/* XPM */
static char *7_connect[] = {
/* columns rows colors chars-per-pixel */
"16 16 84 1",
"  c #4A4A6B",
". c #5A5A63",
"X c #6B634A",
"o c #7B735A",
"O c #6B6B63",
"+ c #636373",
"@ c #63637B",
"# c #7B736B",
"$ c gray45",
"% c #63638C",
"& c #6B6B9C",
"* c #7B738C",
"= c #73739C",
"- c #7B7B94",
"; c #6B6BA5",
": c #6B6BAD",
"> c #7373AD",
", c #7B7BAD",
"< c #7B7BBD",
"1 c #7B7BC6",
"2 c #947329",
"3 c #9C7329",
"4 c #9C7B29",
"5 c #8C6B42",
"6 c #9C7B42",
"7 c Null",
"8 c #B58421",
"9 c #8C8452",
"0 c #948452",
"q c #948C6B",
"w c #948C73",
"e c #9C9473",
"r c #A58C52",
"t c #BDAD6B",
"y c #C69C4A",
"u c #E7B55A",
"i c #F7BD5A",
"p c #D6C673",
"a c #E7CE73",
"s c #FFD673",
"d c #848484",
"f c #84848C",
"g c gray55",
"h c #848494",
"j c #84849C",
"k c #8C8494",
"l c #9C9C94",
"z c #8484B5",
"x c #8C8CB5",
"c c #9C9CAD",
"v c #ADA584",
"b c #A5A5A5",
"n c #A5A5BD",
"m c #8C8CC6",
"M c #8C8CCE",
"N c #8484D6",
"B c #8C8CDE",
"V c #9494CE",
"C c #9C9CCE",
"Z c #ADADC6",
"A c #ADADCE",
"S c #A5A5DE",
"D c #ADADDE",
"F c #B5B5CE",
"G c #B5B5DE",
"H c #A5A5E7",
"J c #ADADE7",
"K c #ADADEF",
"L c #B5B5EF",
"P c #BDBDEF",
"I c #EFDE84",
"U c #CECEC6",
"Y c #CECEDE",
"T c #C6C6E7",
"R c #C6C6EF",
"E c #CECEEF",
"W c #C6C6F7",
"Q c #CECEF7",
"! c #D6D6EF",
"~ c #DEDEEF",
"^ c #E7E7FF",
"/ c #EFEFFF",
"( c #F7F7FF",
") c gray100",
/* pixels */
"77777777b)g$7777",
"77777777b)g$7777",
"777cZFZnnjf$7777",
"77xA~//^RLjj7777",
"7zY((^E!QWWDj777",
"7,!/^ETRWPJKCj77",
"7;;>CGPLSHKKDzg7",
"7>&lb&&MSJSSSmj7",
"7<fIe&11&;MVVmh7",
"7>rs.;NNN@UxN<-7",
"7782 &NB1#IkB>g7",
"70i5+7=>:9a*N%77",
"7tpX7777O43@&777",
"7ydv7777wu677777",
"77777777qao77777",
"77777777ydv77777"
};
