/* XPM */
static char *16_database[] = {
/* columns rows colors chars-per-pixel */
"16 16 35 1",
"  c gray26",
". c gray29",
"X c #4A4252",
"o c #4A524A",
"O c #5A5A5A",
"+ c #5A6363",
"@ c #6B5A63",
"# c gray39",
"$ c #63636B",
"% c #6B6363",
"& c #6B736B",
"* c #736B73",
"= c gray45",
"- c #73737B",
"; c #7B7373",
": c #7B737B",
"> c #7B7B7B",
", c #7B848C",
"< c Null",
"1 c #848484",
"2 c #8C848C",
"3 c gray55",
"4 c gray58",
"5 c gray61",
"6 c #94A59C",
"7 c #A5A5A5",
"8 c gray68",
"9 c #B5ADAD",
"0 c gray71",
"q c gray74",
"w c #C6C6C6",
"e c #CECECE",
"r c gray84",
"t c gray87",
"y c #D6DEE7",
/* pixels */
"<<<<,:*;===>1<<<",
"<<<o936777873><<",
"<<<X7=@&48eq73<<",
"<<<Xy2+&58eq74<<",
"<<<Xy2$=78ew74<<",
"<<<X7=#=70e03><<",
"<<< t2#>70rw85<<",
"<<< r2%-70rw85<<",
"<<< r1#=70rw85<<",
"<<<.7=O=70q711<<",
"<<<.t1#>70rw74<<",
"<<< r1#=70rw85<<",
"<<<.t1#>7qrw85<<",
"<<<15=#=80q711<<",
"<<<<<<<<<<<<<<<<",
"<<<<<<<<<<<<<<<<"
};
