/* XPM */
static char *17_users[] = {
/* columns rows colors chars-per-pixel */
"16 16 124 2",
"   c gray3",
".  c #181008",
"X  c #101010",
"o  c #181818",
"O  c #312110",
"+  c gray16",
"@  c #313131",
"#  c #393939",
"$  c #297329",
"%  c #297B29",
"&  c #316B31",
"*  c #317331",
"=  c #397339",
"-  c #422918",
";  c #731810",
":  c #732121",
">  c #7B2121",
",  c gray26",
"<  c gray29",
"1  c #5A5A5A",
"2  c #5A5263",
"3  c #5A735A",
"4  c #5A7363",
"5  c #7B6B42",
"6  c gray42",
"7  c gray45",
"8  c #18318C",
"9  c #294A8C",
"0  c #294A9C",
"q  c #1842C6",
"w  c #2142C6",
"e  c #214ACE",
"r  c #294AC6",
"t  c #294ACE",
"y  c #315AC6",
"u  c #395AE7",
"i  c #42528C",
"p  c #4A52A5",
"a  c #4263A5",
"s  c #5273B5",
"d  c #425AEF",
"f  c #426BDE",
"g  c #4A7BDE",
"h  c #4A63EF",
"j  c #4A63F7",
"k  c #5A6BFF",
"l  c #5A7BEF",
"z  c #5A73F7",
"x  c #5A73FF",
"c  c #637BFF",
"v  c #188C18",
"b  c #189418",
"n  c #398431",
"m  c #398C39",
"M  c #31B531",
"N  c #398C7B",
"B  c #4AA54A",
"V  c #42B542",
"C  c #5AAD63",
"Z  c #52A57B",
"A  c #5AB573",
"S  c #63AD7B",
"D  c #63BD63",
"F  c #52C652",
"G  c #63C663",
"H  c #63CE63",
"J  c #73D673",
"K  c #73BD84",
"L  c #5A8CDE",
"P  c #6384D6",
"I  c #6B8CFF",
"U  c #8C3110",
"Y  c #943110",
"T  c #9C6B10",
"R  c #A54A18",
"E  c #AD4A10",
"W  c #BD5218",
"Q  c #BD5A18",
"!  c #A55A21",
"~  c #C66B21",
"^  c #CE6321",
"/  c #CE6B21",
"(  c #E77B29",
")  c Null",
"_  c #A58442",
"`  c #B58C4A",
"'  c #A59463",
"]  c #CE8C29",
"[  c #C69439",
"{  c #CE9431",
"}  c #DE9431",
"|  c #EF9429",
" . c #F78C29",
".. c #F79431",
"X. c #FF9C39",
"o. c #FFA539",
"O. c #CE9C4A",
"+. c #C69C52",
"@. c #CE9C52",
"#. c #D6A55A",
"$. c #DEB56B",
"%. c #D6B573",
"&. c #E7A542",
"*. c #E7A54A",
"=. c #FFAD4A",
"-. c #FFB54A",
";. c #FFB552",
":. c #FFBD52",
">. c #FFBD5A",
",. c #848484",
"<. c gray55",
"1. c #B5AD94",
"2. c #A5A5A5",
"3. c #84B5EF",
"4. c #84DE84",
"5. c #9CD6FF",
"6. c #B5DEC6",
"7. c #CEB58C",
"8. c #D6B584",
"9. c #D6BD8C",
"0. c #DEC69C",
"q. c #EFD6AD",
"w. c #C6E7D6",
"e. c #E7F7FF",
/* pixels */
") ) ) ) ) ) ) ) ) ) ) ) ) ) ) ) ",
") ) ) ) ) ) ) ) ) ) 0.9.8.7.) ) ",
") ) , 7 <.,.# ) ) ) #.$.q.%._ ) ",
") ) 1 6 2.,.@ < ) +.[ O.{ ] T ) ",
") @ < - / ( ..~ ) *.:.>.:.;.} ) ",
") @ + ! .... ./ ) &.-.;.-.=.] ) ",
") o O Q / / ^ E ) @.o.o.X.X.5 ) ",
") X . R Q Q W U ) ) ......| ) ) ",
") ) o   Y Y ; 2 B D 1.` ' n ) ) ",
") ) a 8 : > p y A 4.e.e.S D m ) ",
") P c I L 5.L l u Z 6.w.J H V v ",
"e e x c f 3.g z u N K C G F M b ",
"q q u j k h u d 9 4 = * % $ & 3 ",
"s s q w t r 0 i ) ) ) ) ) ) ) ) ",
") ) ) ) ) ) ) ) ) ) ) ) ) ) ) ) ",
") ) ) ) ) ) ) ) ) ) ) ) ) ) ) ) "
};
