/* XPM */
static char *17_save[] = {
/* columns rows colors chars-per-pixel */
"16 16 64 1",
"  c #292994",
". c #313194",
"X c #31319C",
"o c #39399C",
"O c #3939A5",
"+ c #42429C",
"@ c #4A4A9C",
"# c #4A4AA5",
"$ c #4A52AD",
"% c #4A52B5",
"& c #5252A5",
"* c #5252AD",
"= c #5A52AD",
"- c #5A5AAD",
"; c #5252B5",
": c #5A5AB5",
"> c #5A5ABD",
", c #7B7B9C",
"< c #7373B5",
"1 c #737BBD",
"2 c #5A5AC6",
"3 c #6363CE",
"4 c #6B6BCE",
"5 c Null",
"6 c #84849C",
"7 c #8484AD",
"8 c #8C8CAD",
"9 c #8484B5",
"0 c #8C8CB5",
"q c #9494AD",
"w c #9C9CA5",
"e c #9C9CB5",
"r c #A5A5BD",
"t c #8484C6",
"y c #8C94C6",
"u c #9494C6",
"i c #9C9CD6",
"p c #ADADCE",
"a c #A5A5D6",
"s c #A5ADD6",
"d c #ADADD6",
"f c #ADADDE",
"g c #B5B5CE",
"h c #BDBDCE",
"j c #B5B5D6",
"k c #BDBDDE",
"l c #C6CEC6",
"z c #C6CECE",
"x c #CECECE",
"c c gray84",
"v c #D6D6DE",
"b c gray87",
"n c #C6C6E7",
"m c #CECEE7",
"M c #CED6E7",
"N c #D6D6EF",
"B c #DEDEE7",
"V c #EFEFEF",
"C c #EFEFF7",
"Z c #EFF7F7",
"A c gray97",
"S c #F7F7FF",
"D c #F7FFFF",
"F c #FFFFFF",
/* pixels */
"55$gcxxxxxxxcp#5",
"51%MSCCCCCCCSk2=",
"51%NVcccccccVk2=",
"51%NZBBBBBBBVk2=",
"51%NVvbbbbbvVk2=",
"51%NVcccccccVk2=",
"51%NSCCCCCCCAk2=",
"51$mAZAAAAAAAk2=",
"51;:tadsdaasdi3*",
"513333333223334=",
"5133>yu98rnfOO2-",
"5133:0@.wcFn .>-",
"5133:7oohVFn .>-",
"5133:,+<BSFj.X>-",
"5134:6rmSDAg X2-",
"55-*#qlzzlle++&5"
};
