/* XPM */
static char *21_open[] = {
/* columns rows colors chars-per-pixel */
"16 16 37 1",
"  c #087300",
". c #087B08",
"X c #108408",
"o c #108C08",
"O c #18A508",
"+ c #218C10",
"@ c #219C10",
"# c #29AD18",
"$ c #4AC631",
"% c #6BD642",
"& c #7BD652",
"* c Null",
"= c #8CE75A",
"- c #C6A518",
"; c #D6AD18",
": c #D6AD21",
"> c #D6AD29",
", c #DEB531",
"< c #E7BD52",
"1 c #E7C64A",
"2 c #EFC64A",
"3 c #F7DE6B",
"4 c #F7DE73",
"5 c #EFDE9C",
"6 c #EFDEAD",
"7 c #FFEF84",
"8 c #FFEF8C",
"9 c #FFEF94",
"0 c #FFF78C",
"q c #FFF794",
"w c #FFFF94",
"e c #FFFF9C",
"r c #F7EFA5",
"t c #FFF7A5",
"y c #FFFFAD",
"u c #FFFFC6",
"i c #FFFFD6",
/* pixels */
"****************",
"******* .oo.****",
"**,>--****oOX***",
"*:5uu5;----oO***",
"*>uweii8944X#X**",
"*>eqqqq44>-+$@-*",
"*>eq4443>6 &%$ *",
"*>e4>---607 = -*",
"*>q>6rrt8884 -**",
"*>4>e00088844-**",
"*>>6qq8888442***",
"*><y08884442:***",
"*><ew44441:-****",
"*>571:---*******",
"*>,:************",
"****************"
};
