/* XPM */
static char *22_sqlscript[] = {
/* columns rows colors chars-per-pixel */
"16 16 50 1",
"  c #738CBD",
". c #7B84BD",
"X c #4AA5EF",
"o c #6B84C6",
"O c #7394CE",
"+ c #7B94C6",
"@ c #73B5EF",
"# c #73C6FF",
"$ c #C67B52",
"% c Null",
"& c #FFA539",
"* c #FFF700",
"= c gray61",
"- c #8484B5",
"; c #848CB5",
": c #849CCE",
"> c #9CA5C6",
", c #A5ADC6",
"< c #ADB5CE",
"1 c #ADBDC6",
"2 c #ADB5D6",
"3 c #B5BDD6",
"4 c #B5BDDE",
"5 c #94CEEF",
"6 c #9CCEEF",
"7 c #9CD6F7",
"8 c #B5C6DE",
"9 c #A5D6F7",
"0 c #ADD6F7",
"q c #B5C6E7",
"w c #B5CEEF",
"e c #BDCEEF",
"r c #B5D6F7",
"t c #B5DEF7",
"y c #BDDEF7",
"u c #FFFF94",
"i c gray87",
"p c #CECEE7",
"a c #C6DEE7",
"s c #CED6E7",
"d c #C6DEF7",
"f c #C6E7F7",
"g c #D6E7F7",
"h c #D6EFFF",
"j c #E7EFFF",
"k c #E7F7FF",
"l c #EFF7FF",
"z c #F7F7FF",
"x c #F7FFFF",
"c c gray100",
/* pixels */
"%%qwwwwqqw3.%%%%",
"%%qzllllllp+:%%%",
"%%ecccccccs+#O%%",
"%%qccccccxp @Xo%",
"%%qci==&u**$$;-%",
"%%8ccc&u**$$a1-%",
"%%4cc&u**$$ddr-%",
"%%3ci&u*$$===t-%",
"%%3c&u*$$fdyr0-%",
"%%2&u*****$$99-%",
"%%<$$$$u*$$==6-%",
"%%,kg&u*$$0665-%",
"%%,j&*$$$06656-%",
"%%>h*$$======6-%",
"%%>h$$t0965557-%",
"%%-------------%"
};
