/* XPM */
static char *23_sqlexecute[] = {
/* columns rows colors chars-per-pixel */
"16 16 20 1",
"  c #004A00",
". c #005200",
"X c #006300",
"o c #219C08",
"O c #219C10",
"+ c #29A510",
"@ c #39AD10",
"# c #39B510",
"$ c #39AD39",
"% c #4AB518",
"& c #52BD4A",
"* c #52BD52",
"= c #52BD5A",
"- c #5AC65A",
"; c #63C663",
": c #63C66B",
"> c #6BC66B",
", c #7BD67B",
"< c Null",
"1 c #8CD68C",
/* pixels */
"<<<<<<<<<<<<<<<<",
"<<<<<<<<<<<<<<<<",
"<<<<< X <<<<<<<<",
"<<<<<X$X <<<<<<<",
"<<<<<X;1X <<<<<<",
"<<<<<X>,,X <<<<<",
"<<<<<X->:&X <<<<",
"<<<<<X*=&&&X.<<<",
"<<<<<X%@@@+X.<<<",
"<<<<<X#+ooX <<<<",
"<<<<<X++oX <<<<<",
"<<<<<XOoX <<<<<<",
"<<<<<XoX <<<<<<<",
"<<<<< X <<<<<<<<",
"<<<<<<<<<<<<<<<<",
"<<<<<<<<<<<<<<<<"
};
