/* XPM */
static char *24_sql_new[] = {
/* columns rows colors chars-per-pixel */
"16 16 48 1",
"  c #738CBD",
". c #7B84BD",
"X c #4AA5EF",
"o c #6B84C6",
"O c #7394CE",
"+ c #7B94C6",
"@ c #73B5EF",
"# c #73C6FF",
"$ c Null",
"% c #8484B5",
"& c #848CB5",
"* c #8C94B5",
"= c #849CCE",
"- c #94A5C6",
"; c #9CA5C6",
": c #A5ADC6",
"> c #ADB5CE",
", c #ADBDC6",
"< c #ADB5D6",
"1 c #B5BDD6",
"2 c #B5BDDE",
"3 c #94CEEF",
"4 c #9CCEEF",
"5 c #9CD6F7",
"6 c #B5C6DE",
"7 c #A5D6F7",
"8 c #ADD6F7",
"9 c #B5C6E7",
"0 c #B5CEEF",
"q c #BDCEEF",
"w c #B5D6F7",
"e c #B5DEF7",
"r c #BDDEF7",
"t c #CECEE7",
"y c #C6DEE7",
"u c #CED6E7",
"i c #C6DEF7",
"p c #C6E7F7",
"a c #CEE7F7",
"s c #D6E7F7",
"d c #D6EFFF",
"f c #DEEFFF",
"g c #E7EFFF",
"h c #E7F7FF",
"j c #EFF7FF",
"k c #F7F7FF",
"l c #F7FFFF",
"z c #FFFFFF",
/* pixels */
"$$900009901.$$$$",
"$$9kjjjjjjt+=$$$",
"$$qzzzzzzzu+#O$$",
"$$9zzzzzzlt @Xo$",
"$$9zzzzzjjs-*&%$",
"$$6zzzzkgffdy,%$",
"$$2zzzkgfsaiiw%$",
"$$1zzkjgsairee%$",
"$$1zkjfsapirw8%$",
"$$<zjgsapir877%$",
"$$>lgssairw844%$",
"$$:hsapiew8443%$",
"$$:gsairw84434%$",
"$$;dairw744334%$",
"$$;dpre8743335%$",
"$$%%%%%%%%%%%%%$"
};
