/* XPM */
static char *26_rollback[] = {
/* columns rows colors chars-per-pixel */
"16 16 41 1",
"  c #004AAD",
". c #004AB5",
"X c #0052B5",
"o c #0052BD",
"O c #005ABD",
"+ c #1042A5",
"@ c #104AAD",
"# c #1052B5",
"$ c #215AB5",
"% c #315AB5",
"& c #3163BD",
"* c #005AC6",
"= c #0063C6",
"- c #0063CE",
"; c #006BCE",
": c #086BCE",
"> c #0073D6",
", c #0073DE",
"< c #007BDE",
"1 c #1063C6",
"2 c #007BE7",
"3 c #2173CE",
"4 c #397BCE",
"5 c #426BBD",
"6 c #5273BD",
"7 c #527BBD",
"8 c #4273C6",
"9 c #527BC6",
"0 c #0084E7",
"q c #0094F7",
"w c #089CFF",
"e c #31ADFF",
"r c #4284CE",
"t c #4A84CE",
"y c #5A84C6",
"u c #6384C6",
"i c #738CC6",
"p c #7B94CE",
"a c #63BDFF",
"s c Null",
"d c #849CCE",
/* pixels */
"ssssssssssssssss",
"ssssssssssssssss",
"ssssssssssssssss",
"spysssssd1;;O5ss",
"s4a9sss$20<>;=@s",
"s3etss102o9i#==u",
"s:wrsX0;&ssss.-#",
"s-q#X<;7sssss8-.",
"s=0-,-ussssss8-.",
"sO<>-+dddssss -#",
"sX>;----=5ssd==u",
"s OOOOOOOuss -.s",
"sssssssssss$-=us",
"ssssssssss%=-$ss",
"sssssssss%*-#sss",
"sssssssss6* ssss"
};
