/* XPM */
static char *28_next[] = {
/* columns rows colors chars-per-pixel */
"16 16 80 1",
"  c #003100",
". c #004200",
"X c #004A00",
"o c #084A00",
"O c #005200",
"+ c #086300",
"@ c #086B00",
"# c #087B00",
"$ c #106B00",
"% c #107308",
"& c #088C00",
"* c #089400",
"= c #089C00",
"- c #189C08",
"; c #08A500",
": c #10A500",
"> c #18A508",
", c #18AD08",
"< c #218408",
"1 c #298C10",
"2 c #219C10",
"3 c #399C18",
"4 c #21A508",
"5 c #29A508",
"6 c #21AD10",
"7 c #29AD10",
"8 c #31A510",
"9 c #31AD10",
"0 c #31AD18",
"q c #39AD10",
"w c #31A521",
"e c #42A510",
"r c #4AAD10",
"t c #42B510",
"y c #4AB518",
"u c #4AA529",
"i c #4ABD21",
"p c #52B521",
"a c #5ABD29",
"s c #52B539",
"d c #63BD31",
"f c #63BD39",
"g c #6BBD39",
"h c #4ABD42",
"j c #63BD42",
"k c #63BD4A",
"l c #6BBD4A",
"z c #52C64A",
"x c #5AC652",
"c c #73C642",
"v c #73C64A",
"b c #7BC64A",
"n c #73C652",
"m c #7BC652",
"M c #7BD673",
"N c Null",
"B c #84CE52",
"V c #8CCE63",
"C c #8CCE6B",
"Z c #94D67B",
"A c #9CDE7B",
"S c #8CD684",
"D c #9CDE84",
"F c #A5DE84",
"G c #A5DE94",
"H c #B5DE94",
"J c #B5E79C",
"K c #B5E7AD",
"L c #C6E7A5",
"P c #C6E7AD",
"I c #C6EFB5",
"U c #C6EFBD",
"Y c #CEEFBD",
"T c #D6EFBD",
"R c #DEF7D6",
"E c #E7F7D6",
"W c #EFF7E7",
"Q c #EFFFEF",
"! c #F7FFF7",
"~ c #FFFFFF",
/* pixels */
"NNNNNwsjju1NNNNN",
"NNNkkHTLHAb33NNN",
"NN2CEJmfaddi8+NN",
"NwnTVppPHyq972@N",
"NwPCryg!~D954,@N",
"%lFpyppmW~D95>&.",
"%mcmBBBvZ!~G0>=.",
"%ga~~~~~~~~~K==O",
"$ppYUIIII!~Qx==X",
"Oey9:===M~!h=;*.",
"O<t7-=-S~!h==;#.",
"No97>:6RWz===;XN",
"No$4>=======;@XN",
"NNo+:;====;;@ NN",
"NNN..#====#XXNNN",
"NNNNN .OO. NNNNN"
};
