/* XPM */
static char *32_reload[] = {
/* columns rows colors chars-per-pixel */
"16 16 30 1",
"  c #10315A",
". c #103963",
"X c #10396B",
"o c #104273",
"O c #10427B",
"+ c #104A84",
"@ c #184A8C",
"# c #185294",
"$ c #185A9C",
"% c #185AA5",
"& c #1863AD",
"* c #2163B5",
"= c #216BBD",
"- c #216BC6",
"; c #2173CE",
": c #2173D6",
"> c #217BD6",
", c #297BDE",
"< c #3184DE",
"1 c #3984DE",
"2 c #428CDE",
"3 c #4A94E7",
"4 c #529CE7",
"5 c #63A5E7",
"6 c #6BA5E7",
"7 c Null",
"8 c #84B5EF",
"9 c #94BDEF",
"0 c #A5CEF7",
"q c #FFFFFF",
/* pixels */
"7qqqqqqqqqqqqqq7",
"q031,::;;-=*%#5q",
"q3864321<,,;-%oq",
"q26621<<,9q-*%+q",
"q,4q<,,>9qq*%%+q",
"q:2q<,>9qqq&%%+q",
"q:<q>;9qqqq%%%+q",
"q->q;9qqqqq&%%+q",
"q=:q;9qqqqq*%%+q",
"q*;q;;9qqqq=&%Oq",
"q%=q:;;9qqq=&$oq",
"q$*q--;;9qq=%#oq",
"q@%6**=;;9q*$+Xq",
"qO#%%%%%%%%$#O q",
"q4ooooOOooooX.3q",
"7qqqqqqqqqqqqqq7"
};
