/* XPM */
static char *37_syntax[] = {
/* columns rows colors chars-per-pixel */
"16 16 15 1",
"  c #00298C",
". c #004ABD",
"X c #0063DE",
"o c #008400",
"O c #FF5229",
"+ c Null",
"@ c #BD8400",
"# c #8484BD",
"$ c #94CEFF",
"% c #A5D6FF",
"& c #B5DEFF",
"* c #CEE7FF",
"= c #DEEFFF",
"- c #F7FFFF",
"; c gray100",
/* pixels */
"++++++++++++++++",
"++++++++++++++++",
"++++++++++++++++",
"+...............",
"+.;;;;;;;;;;;-=.",
"+.;###;XXX;ooo*.",
"+.;###;XXX;ooo&.",
"+.;###;XXX-ooo%.",
"+.;;;;;;;-=*&%$.",
"+.;OOO;   *@@@$.",
"+.;OOO;   &@@@$.",
"+.;OOO-   %@@@$.",
"+.;;;-=*&%$$$$$.",
"+.;;-=*&%$$$$$$.",
"+...............",
"++++++++++++++++"
};
