/* XPM */
static char *38_preferences[] = {
/* columns rows colors chars-per-pixel */
"16 16 23 1",
"  c #293131",
". c #392121",
"X c #393131",
"o c gray26",
"O c #4A4A52",
"+ c #4A525A",
"@ c #0063CE",
"# c #942918",
"$ c #9C2110",
"% c #A52910",
"& c #94736B",
"* c #D67363",
"= c #E75A42",
"- c #E77B63",
"; c Null",
": c #8C8C94",
"> c #ADD6FF",
", c #B5DEFF",
"< c #C6E7FF",
"1 c #D6EFFF",
"2 c #E7F7FF",
"3 c #F7FFFF",
"4 c gray100",
/* pixels */
";;;;;;;;;;;;;;;;",
";;;;;;;;;;;;;;;;",
";;@@@@@@@@@@@@@;",
";@@@@@@@@@@@@@@@",
";@444444-=44432@",
";@44oO+#*444321@",
";@44X-4$444321<@",
";@44 &%.44321<,@",
";@44::::4421<,>@",
";@444444-=1<,>>@",
";@44oO+#*1<,>>>@",
";@44X-3$1<,>>>>@",
";@44 &%.<,>>>>>@",
";@43::::>>>>>>>@",
";@@@@@@@@@@@@@@@",
";;;;;;;;;;;;;;;;"
};
