/* XPM */
static char *40_backup[] = {
/* columns rows colors chars-per-pixel */
"16 16 48 1",
"  c #005200",
". c #005A00",
"X c #086300",
"o c #087300",
"O c #087B00",
"+ c gray26",
"@ c gray29",
"# c #4A4252",
"$ c #4A524A",
"% c #5A5A5A",
"& c #5A6363",
"* c #6B5A63",
"= c gray39",
"- c #63636B",
"; c #6B6363",
": c #6B736B",
"> c #736B73",
", c gray45",
"< c #73737B",
"1 c #7B7373",
"2 c #7B737B",
"3 c #7B7B7B",
"4 c #109400",
"5 c #189408",
"6 c #219C10",
"7 c #319C18",
"8 c #31AD18",
"9 c #42AD21",
"0 c #42AD29",
"q c #4AC629",
"w c #73DE42",
"e c #7B848C",
"r c Null",
"t c #848484",
"y c #8C848C",
"u c gray55",
"i c gray61",
"p c #94A59C",
"a c #A5A5A5",
"s c gray68",
"d c #B5ADAD",
"f c gray71",
"g c gray74",
"h c #C6C6C6",
"j c #CECECE",
"k c gray84",
"l c gray87",
"z c #D6DEE7",
/* pixels */
"rrre2>1,,,3trrrr",
"rr$dupaaasau3rrr",
"rr#a,*: .OOX.rrr",
"rr#zy&:isj.4orrr",
"rr#zy-,asjh.4.rr",
"rr#a,=,afjf.5.rr",
"rr+ly=3af...8...",
"rr+ky;<af.69q86.",
"rr+kt=,afk.7w9.r",
"rr@a,%,afga.0.rr",
"rr@lt=3afkha.rrr",
"rr+kt=,afkhsirrr",
"rr@lt=3agkhsirrr",
"rrti,=,sfgattrrr",
"rrrrrrrrrrrrrrrr",
"rrrrrrrrrrrrrrrr"
};
