/* XPM */
static char *42_grant[] = {
/* columns rows colors chars-per-pixel */
"16 16 79 1",
"  c #313131",
". c #107B10",
"X c #4A2121",
"o c #525239",
"O c #4A7318",
"+ c #526B29",
"@ c #634208",
"# c #6B5A31",
"$ c #7B6329",
"% c #7B6B31",
"& c #4A5A7B",
"* c #526373",
"= c #6B6352",
"- c #108410",
"; c #189C18",
": c #299C29",
"> c #399C39",
", c #21A521",
"< c #31A531",
"1 c #31AD31",
"2 c #39AD39",
"3 c #4AA552",
"4 c #4ABD4A",
"5 c #63BD63",
"6 c #52C652",
"7 c #63C663",
"8 c #63CE63",
"9 c #6BC66B",
"0 c #6BCE6B",
"q c #73CE73",
"w c #7B848C",
"e c #7BBD8C",
"r c #8C7339",
"t c #947339",
"y c #A56B21",
"u c #A57321",
"i c #AD7B29",
"p c #BD7B21",
"a c #E71000",
"s c #C67B18",
"d c #F77329",
"f c Null",
"g c #AD8439",
"h c #9C8463",
"j c #AD8C42",
"k c #AD8C4A",
"l c #B5944A",
"z c #BD9452",
"x c #BDA56B",
"c c #C68421",
"v c #D6A510",
"b c #E78C21",
"n c #E78C29",
"m c #EF9C29",
"M c #F79C39",
"N c #FF9C39",
"B c #C6944A",
"V c #DEA542",
"C c #DEAD5A",
"Z c #C6A56B",
"A c #D6AD6B",
"S c #E79C4A",
"D c #EFA542",
"F c #EFB54A",
"G c #F7A542",
"H c #FFA542",
"J c #FFAD4A",
"K c #FFB54A",
"L c #F7B552",
"P c #FFB552",
"I c #FFBD52",
"U c #FFBD5A",
"Y c #E7BD73",
"T c #F7AD63",
"R c #EFD608",
"E c #E7BD8C",
"W c #FFF78C",
"Q c #EFFFF7",
"! c gray100",
/* pixels */
"ffffffffffffffff",
"ffffxlkhffffffff",
"fffuAEYC%fffffff",
"ffhuBATSyfffffff",
"ffzDUULFLrffffff",
"ffZGKPIPJtffffff",
"fffcHHHHM#fffffa",
"fffiNNNNnoffffmd",
"ffffsbnb+ffff!*X",
"ffffOgpj5>ffVw f",
"fff4q3!!9qvRd@ff",
"ff:409QQ78Rd@fff",
"ff,146>evRd@ffff",
"ff-;<22.Wd@fffff",
"fffffff&$=ffffff",
"fffffff ffffffff"
};
