/* XPM */
static char *3_procedure[] = {
/* columns rows colors chars-per-pixel */
"16 16 11 1",
"  c black",
". c #0000C0",
"X c blue",
"o c #606080",
"O c #60C0C0",
"+ c Null",
"@ c #808080",
"# c #8080C0",
"$ c #A6CAF0",
"% c #FFFBF0",
"& c gray100",
/* pixels */
"++++++++++++++++",
"+@@@@@@@@+++++++",
"+@&&&&&#O#++++++",
"+@&%%%%####+++++",
"+@&$$$$%XXXXXX.+",
"+@&%%%%%&%..XX.+",
"+@&$$$$$$%#+XX.+",
"+@&$$$$$$$oXXXX.",
"+@&$$$$$$$o+XX.+",
"+@&&&%%%%%o++.++",
"+@ooooooooo+++++",
"++   +   + +++++",
"++ +++ + + +++++",
"++   + + + +++++",
"++++ +   + +++++",
"++   +++ +   +++"
};
