/* XPM */
static char *9_refresh[] = {
/* columns rows colors chars-per-pixel */
"16 16 80 1",
"  c #526B8C",
". c #526B94",
"X c #4A6BB5",
"o c #5A63A5",
"O c #5A6BA5",
"+ c #5A7BBD",
"@ c #6B63A5",
"# c #6B73A5",
"$ c #008400",
"% c #088C08",
"& c #088C10",
"* c #109418",
"= c #189418",
"- c #109421",
"; c #189429",
": c #219C21",
"> c #219C29",
", c #29A529",
"< c #39A55A",
"1 c #4AAD6B",
"2 c #4AAD73",
"3 c #63BD63",
"4 c #6BBD73",
"5 c #73C673",
"6 c #73C67B",
"7 c #318CE7",
"8 c #5AB584",
"9 c #6B84BD",
"0 c #73BD94",
"q c #73BD9C",
"w c #6BB5A5",
"e c #73BDAD",
"r c #529CE7",
"t c #5AB5FF",
"y c #6B94D6",
"u c #739CDE",
"i c #73B5CE",
"p c #7BBDDE",
"a c #7BADE7",
"s c #7BBDEF",
"d c #73C684",
"f c #7BC69C",
"g c Null",
"h c #94ADB5",
"j c #94B5AD",
"k c #84BDEF",
"l c #84CE84",
"z c #84C69C",
"x c #94CEA5",
"c c #9CCEBD",
"v c #A5D6AD",
"b c #A5DEA5",
"n c #A5D6BD",
"m c #94CEC6",
"M c #94CED6",
"N c #84C6EF",
"B c #8CC6EF",
"V c #94C6EF",
"C c #94CEE7",
"Z c #9CCEEF",
"A c #94CEF7",
"S c #B5CEDE",
"D c #A5CEEF",
"F c #ADD6EF",
"G c #A5D6F7",
"H c #ADD6F7",
"J c #B5D6F7",
"K c #C6C6DE",
"L c #DEF7DE",
"P c #C6EFFF",
"I c #CEEFFF",
"U c #D6E7E7",
"Y c #D6EFF7",
"T c #DEEFFF",
"R c #E7EFFF",
"E c #E7F7FF",
"W c #EFF7F7",
"Q c #EFF7FF",
"! c #F7FFFF",
"~ c #FFFFFF",
/* pixels */
"ggayyyyyyyyOgggg",
"ggaWWWWWWWKO9ggg",
"gga~~~~~~~KOt+gg",
"ggu~~~~LL!j r7Xg",
"ggu~~L3::4>.OO@g",
"ggy~W,$$$$&ISh@g",
"ggy~l$6v=$&JHD@g",
"gg9~5vRd$$%FDG@g",
"gg9~bRYz00qDZA@g",
"gg#~Uxz0qFDfVB@g",
"gg#Qn%$$8Dw1BN@g",
"ggoEc*$*e2$2kN@g",
"ggoTc&$$$$;psN@g",
"gg@Iq>1--<issN@g",
"gg@PmMZCNkskkN@g",
"gg@@@@@@@@@@@@@g"
};
