/* XPM */
static char *11_disconnect[] = {
/* columns rows colors chars-per-pixel */
"16 16 77 1",
"  c #6B634A",
". c #7B735A",
"X c #6B6B63",
"o c #636373",
"O c #63637B",
"+ c #7B736B",
"@ c gray45",
"# c #6B6B9C",
"$ c #7B738C",
"% c #73739C",
"& c #7B7B94",
"* c #6B6BA5",
"= c #6B6BAD",
"- c #7373AD",
"; c #7B7BAD",
": c #7B7BBD",
"> c #7B7BC6",
", c #9C7329",
"< c #9C7B29",
"1 c #9C7B42",
"2 c #DE3100",
"3 c #E73100",
"4 c #EF3100",
"5 c #F73100",
"6 c #FF3100",
"7 c Null",
"8 c #B58421",
"9 c #8C8452",
"0 c #948452",
"q c #948C6B",
"w c #948C73",
"e c #9C9473",
"r c #A58C52",
"t c #BDAD6B",
"y c #C69C4A",
"u c #E7B55A",
"i c #F7BD5A",
"p c #D6C673",
"a c #E7CE73",
"s c #FFD673",
"d c #848484",
"f c #84848C",
"g c gray55",
"h c #848494",
"j c #84849C",
"k c #8C8494",
"l c #9C9C94",
"z c #8484B5",
"x c #8C8CB5",
"c c #ADA584",
"v c #A5A5A5",
"b c #A5A5BD",
"n c #8C8CC6",
"m c #8484D6",
"M c #8C8CDE",
"N c #9494CE",
"B c #9C9CCE",
"V c #ADADC6",
"C c #ADADCE",
"Z c #A5A5DE",
"A c #ADADDE",
"S c #B5B5CE",
"D c #B5B5DE",
"F c #ADADEF",
"G c #B5B5EF",
"H c #BDBDEF",
"J c #EFDE84",
"K c #CECEDE",
"L c #C6C6EF",
"P c #CECEEF",
"I c #C6C6F7",
"U c #CECEF7",
"Y c #D6D6EF",
"T c #E7E7FF",
"R c #EFEFFF",
"E c #F7F7FF",
"W c gray100",
/* pixels */
"77777777vWg@7777",
"77757777vWg@7777",
"77755SVbbjf@7577",
"77xC64RTLGjj5777",
"7zKEE54YUII5j777",
"7;YRTP24II52Bj77",
"7**-BDH3322FAzg7",
"7-#lv#2323ZZZnj7",
"7:fJe22>#22NNnh7",
"7-rs22mmmO22m:&7",
"77822#mM>+Jk2-g7",
"70i2o7%-=9a$m277",
"7tp 7777X<,O#777",
"7ydc7777wu177777",
"77777777qa.77777",
"77777777ydc77777"
};
