/* XPM */
static char *25_commit[] = {
/* columns rows colors chars-per-pixel */
"16 16 28 1",
"  c #008C00",
". c #009400",
"X c #009C00",
"o c #089400",
"O c #109C00",
"+ c #00A500",
"@ c #10AD00",
"# c #18AD00",
"$ c #319C31",
"% c #21AD00",
"& c #21B500",
"* c #21BD00",
"= c #29B518",
"- c #39AD29",
"; c #29C600",
": c #31CE00",
"> c #4AAD29",
", c #42B531",
"< c #4AA552",
"1 c #63B56B",
"2 c #42C618",
"3 c #42D600",
"4 c #5ACE29",
"5 c #63FF00",
"6 c #7BBD8C",
"7 c Null",
"8 c #A5E75A",
"9 c #94C6A5",
/* pixels */
"7777777777777777",
"7777777777777777",
"7777777777797777",
"7777777777,36777",
"7777777777>8-677",
"777777777<;-,777",
"777777777&;.6777",
"77777777,;X 7777",
"7777%%77#;.97777",
"777255<<;+$77777",
"777=455*;.677777",
"777<:;5:X 777777",
"7777O:;@.9777777",
"77771*;+$7777777",
"77777=*.67777777",
"77777<o177777777"
};
