/* XPM */
static char *27_previus[] = {
/* columns rows colors chars-per-pixel */
"16 16 79 1",
"  c #003100",
". c #004200",
"X c #004A00",
"o c #084A00",
"O c #005200",
"+ c #086300",
"@ c #086B00",
"# c #087B00",
"$ c #106B00",
"% c #107308",
"& c #088C00",
"* c #089400",
"= c #089C00",
"- c #189C08",
"; c #08A500",
": c #10A500",
"> c #18A508",
", c #18AD08",
"< c #218408",
"1 c #298C10",
"2 c #219C10",
"3 c #399C18",
"4 c #21A508",
"5 c #29A508",
"6 c #29AD08",
"7 c #21AD10",
"8 c #31A510",
"9 c #31AD10",
"0 c #39AD10",
"q c #31A521",
"w c #42A510",
"e c #4AAD10",
"r c #42B510",
"t c #4AB518",
"y c #52B518",
"u c #4AA529",
"i c #4ABD21",
"p c #52B521",
"a c #52BD29",
"s c #5ABD29",
"d c #52B539",
"f c #63BD31",
"g c #63BD39",
"h c #6BBD39",
"j c #4ABD42",
"k c #5ABD42",
"l c #63BD42",
"z c #63BD4A",
"x c #6BBD4A",
"c c #52C64A",
"v c #73C642",
"b c #7BC64A",
"n c #73C652",
"m c #7BC652",
"M c #7BD673",
"N c Null",
"B c #8CCE63",
"V c #8CCE6B",
"C c #94D673",
"Z c #9CDE7B",
"A c #8CD684",
"S c #A5DE84",
"D c #ADDE8C",
"F c #B5DE94",
"G c #B5E79C",
"H c #B5E7AD",
"J c #BDE7A5",
"K c #BDE7B5",
"L c #C6E7A5",
"P c #C6E7AD",
"I c #C6EFB5",
"U c #CEEFBD",
"Y c #D6EFBD",
"T c #DEF7D6",
"R c #E7F7D6",
"E c #EFF7E7",
"W c #EFFFEF",
"Q c #F7FFF7",
"! c #FFFFFF",
/* pixels */
"NNNNNqdllu1NNNNN",
"NNNzzFYLDZb33NNN",
"NN2VRGmgsffi8+NN",
"NqnYBpyFPp0992@N",
"NqPVetD!Qa854,@N",
"%xSppF!En9995>&.",
"%mvsJ!QSkkkkk>=.",
"%hsU!!!!!!!!!==O",
"$ppCW!QIKHHHH==X",
"Owt9jQ!M=====;*.",
"O<r8-jQ!A:===;#.",
"No96>:cET7===;XN",
"No$4>=======;@XN",
"NNo+:;====;;@ NN",
"NNN..#====#XXNNN",
"NNNNN .OO. NNNNN"
};
